
<svg
        width="1000"
        height="1000"
        viewBox="0 0 1000 1000"
        xmlns="http://www.w3.org/2000/svg"
>
    <defs>







        <clipPath id="shape">
            <path fill="currentColor" d="M880.5,619Q828,738,730,821.5Q632,905,513.5,864Q395,823,268,792Q141,761,172.5,630.5Q204,500,217.5,402.5Q231,305,307.5,223.5Q384,142,492,166.5Q600,191,726,218Q852,245,892.5,372.5Q933,500,880.5,619Z"></path>
        </clipPath>
    </defs>



    <g  clip-path="url(#shape)">
        <path fill="#444cf7" d="M880.5,619Q828,738,730,821.5Q632,905,513.5,864Q395,823,268,792Q141,761,172.5,630.5Q204,500,217.5,402.5Q231,305,307.5,223.5Q384,142,492,166.5Q600,191,726,218Q852,245,892.5,372.5Q933,500,880.5,619Z" />
    </g>



</svg>